#N canvas 490 281 1163 550 12;
#X obj 240 138 osc~ 440;
#X obj 240 176 *~ 0.25;
#X obj 392 350 dac~;
#X obj 354 291 *~;
#X obj 457 296 *~;
#X obj 580 121 metro 1000;
#X obj 580 155 tgl 15 0 empty empty empty 17 7 0 10 -262144 -1 -1 0
1;
#X obj 581 194 expr 1 - $f1;
#X obj 633 268 sel 1;
#X msg 603 330 sinistra;
#X obj 603 409 print POSITION;
#X obj 700 300 sel 0;
#X msg 704 349 destra;
#X obj 431 33 loadbang;
#X obj 580 87 f 1;
#X msg 399 93 \; pd dsp 1;
#X connect 0 0 1 0;
#X connect 1 0 3 0;
#X connect 1 0 4 0;
#X connect 3 0 2 0;
#X connect 4 0 2 1;
#X connect 5 0 6 0;
#X connect 6 0 3 1;
#X connect 6 0 7 0;
#X connect 6 0 8 0;
#X connect 7 0 4 1;
#X connect 8 0 9 0;
#X connect 8 1 11 0;
#X connect 9 0 10 0;
#X connect 11 0 12 0;
#X connect 12 0 10 0;
#X connect 13 0 14 0;
#X connect 13 0 15 0;
#X connect 14 0 5 0;
