#N canvas 587 277 450 300 12;
#X obj 120 66 adc~ 1;
#X obj 120 115 *~ 1;
#X obj 121 231 dac~;
#X obj 302 92 loadbang;
#X msg 302 117 \; pd dsp 1;
#X obj 120 140 hip~ 5;
#X connect 0 0 1 0;
#X connect 1 0 5 0;
#X connect 3 0 4 0;
#X connect 5 0 2 0;
#X connect 5 0 2 1;
