#N canvas 561 265 694 477 12;
#X obj 113 43 adc~ 1;
#X obj 112 105 *~ 1;
#X obj 112 326 dac~;
#X obj 486 55 loadbang;
#X msg 486 80 \; pd dsp 1;
#X obj 111 298 hip~ 5;
#X obj 183 148 delwrite~ \$0-del 1000;
#X obj 213 251 delread4~ \$0-del;
#X obj 211 202 sig~ 1000;
#X obj 213 276 *~ 0.95;
#X connect 0 0 1 0;
#X connect 1 0 5 0;
#X connect 1 0 6 0;
#X connect 3 0 4 0;
#X connect 5 0 2 0;
#X connect 5 0 2 1;
#X connect 7 0 9 0;
#X connect 8 0 7 0;
#X connect 9 0 1 0;
