#N canvas 561 265 694 477 12;
#X obj 112 75 *~ 1;
#X obj 112 326 dac~;
#X obj 486 55 loadbang;
#X msg 486 80 \; pd dsp 1;
#X obj 111 298 hip~ 5;
#X obj 112 182 vcf~ 2000 10;
#X obj 113 43 adc~ 1;
#X obj 112 207 *~ 5;
#X obj 157 125 sig~ 2000;
#X connect 0 0 5 0;
#X connect 2 0 3 0;
#X connect 4 0 1 0;
#X connect 4 0 1 1;
#X connect 5 0 7 0;
#X connect 6 0 0 0;
#X connect 7 0 4 0;
#X connect 8 0 5 1;
