#N canvas 561 265 694 477 12;
#X obj 112 75 *~ 1;
#X obj 112 326 dac~;
#X obj 486 55 loadbang;
#X msg 486 80 \; pd dsp 1;
#X obj 111 298 hip~ 5;
#X obj 113 43 adc~ 1;
#X obj 112 207 *~ 5;
#X obj 166 66 samphold~;
#X obj 166 39 noise~;
#X obj 166 91 abs~;
#X obj 166 116 *~ 1900;
#X obj 166 141 +~ 100;
#X obj 226 40 phasor~ 8;
#X obj 112 182 vcf~ 2000 5;
#X connect 0 0 13 0;
#X connect 2 0 3 0;
#X connect 4 0 1 0;
#X connect 4 0 1 1;
#X connect 5 0 0 0;
#X connect 6 0 4 0;
#X connect 7 0 9 0;
#X connect 8 0 7 0;
#X connect 9 0 10 0;
#X connect 10 0 11 0;
#X connect 11 0 13 1;
#X connect 12 0 7 1;
#X connect 13 0 6 0;
